<?xml version="1.0" encoding="UTF-8" standalone="no"?>
<!-- Created with Inkscape (http://www.inkscape.org/) -->
<svg id="svg2" xmlns:rdf="http://www.w3.org/1999/02/22-rdf-syntax-ns#" xmlns="http://www.w3.org/2000/svg" height="397.96" width="500" version="1.1" xmlns:cc="http://creativecommons.org/ns#" xmlns:dc="http://purl.org/dc/elements/1.1/">
 <metadata id="metadata7">
  <rdf:RDF>
   <cc:Work rdf:about="">
    <dc:format>image/svg+xml</dc:format>
    <dc:type rdf:resource="http://purl.org/dc/dcmitype/StillImage"/>
    <dc:title/>
   </cc:Work>
  </rdf:RDF>
 </metadata>
 <g id="layer1" transform="translate(32.269375,-458.55635)">
  <g id="g2993" transform="matrix(1.25,0,0,-1.25,-32.269375,856.51468)">
   <g id="g2995" transform="scale(0.06138443,0.06138443)">
    <path id="path2997" fill-rule="nonzero" fill="#231f20" d="m2661.7,1582.7c-54.39,17.97-94.16,28.3-159.12,28.3-47.75,0-104.76-16.71-104.76-73.38,0-105.58,308.94-38.63,308.94-278.06,0-154.5-141.87-216.31-286.38-216.31-67.66,0-136.59,11.59-201.57,28.33l10.59,141.62c55.68-27.04,114.06-43.78,175.06-43.78,45.08,0,116.66,16.74,116.66,81.1,0,130.05-308.97,41.21-308.97,280.67,0,142.88,128.64,205.98,267.89,205.98,83.52,0,137.88-12.9,193.58-24.46l-11.92-130.01"/>
    <path id="path2999" fill-rule="nonzero" fill="#231f20" d="m1934.5,2023.4-0.04,0,0-965.54,177.73,0,0,1019.8-177.69-54.3"/>
    <path id="path3001" fill-rule="nonzero" fill="#231f20" d="m1654.4,2023.4,0-965.54,177.69,0,0,1019.8-177.69-54.3"/>
    <path id="path3003" fill-rule="nonzero" fill="#231f20" d="m1553.6,1968.4c0,54.65-44.3,98.94-98.95,98.94-54.62,0-98.94-44.29-98.94-98.94s44.32-98.95,98.94-98.95c54.65,0,98.95,44.3,98.95,98.95"/>
    <path id="path3005" fill-rule="nonzero" fill="#231f20" d="m1362.1,1057.9,177.71,0,0,663.06-177.71,0,0-663.06z"/>
    <path id="path3007" fill-rule="nonzero" fill="#231f20" d="m1015,1423.8,251.74,297.18-209.5,0-212.15-265.26-2.676,0,0,622.04-177.7-54.3,0-965.54,177.7,0,0,321.87,2.676,0,228.06-321.87,225.4,0-283.55,365.88"/>
    <path id="path3009" fill-rule="nonzero" fill="#231f20" d="m509.46,1791.3c-56.324,24.32-119.04,38.4-181.77,38.4-61.441,0-140.8-26.89-140.8-124.17,0-154.89,391.7-89.6,391.7-389.13,0-195.85-154.89-270.1-335.38-270.1-97.285,0-140.81,12.8-229.13,34.56l16.641,161.29c61.441-33.28,131.84-55.04,202.25-55.04,67.843,0,158.73,34.56,158.73,115.2,0,170.25-391.7,99.85-391.7,395.54,0,199.69,154.89,272.65,312.34,272.65,76.805,0,148.48-10.24,213.77-31.99l-16.64-147.21"/>
    <path id="path3011" fill-rule="nonzero" fill="#ed1c24" d="m320,3633.5s616.13-140.78,947.04-478.53c0,0,313.41-267.6,442.93-806.95,0,0,3.82,44.78-2.5,96.48,0,0,20.66-46.11,35-94.63,0,0-0.84,34.2-6.39,57.25,0,0,35.82-86.68,47.71-159.05,0,0-50.07,413.33-268.51,788.07,0,0,157.22-63.22,338.47-737.97,0,0-80.5,563.99-316.67,870.39,0,0-308.45,494.7-1047.5,717.31,0,0-86.914-47.43-69.863-126.56,0,0-2.285-98.4-99.668-125.81"/>
    <path id="path3013" stroke-linejoin="miter" d="M1804.8,2484.6c-249,1216.6-1284.6,1418.7-1284.6,1418.7" stroke="#ed1c24" stroke-linecap="round" stroke-miterlimit="4" stroke-dasharray="none" stroke-width="1.15999997" fill="none"/>
    <path id="path3015" stroke-linejoin="miter" d="m520.25,3903.3s1021.7-306.53,1242.9-1176" stroke="#ed1c24" stroke-linecap="round" stroke-miterlimit="4" stroke-dasharray="none" stroke-width="2.91000009" fill="none"/>
    <path id="path3017" fill-rule="nonzero" fill="#1e5cad" d="m889.28,4981.8c-89.179-32.94-96.074-139.26-122.21-273.52,0,0,345.8-101.2,750.01-748.12,0,0,408.51-808.96,391.07-1655.8,0,0,11.31,314.24,11.03,371.14,0,0,17.9-160.34,12.04-209.75,0,0,10.58,60,11.85,117.99,0,0,20.35-81.51,26.17-285.2,0,0,34.93,142.6,29.01,544.26,0,0,2.83,281.19-73.05,549.57,0,0-104.61,354.43-124.41,410.51,0,0,145.99-365.8,200.58-612.99,0,0,106.96-386.11,71.21-927.64,0,0,51.76,94.69,72.5,470.92,0,0,7.52,330.74-73.96,623.21l-74.01,260.52s88.34-217.87,132.06-462.71c0,0,75.7-362.27,7.3-727.5,0,0-18.14-176.64-42.09-241.68,0,0,39.71,75.53,73.24,396.13,0,0,36.21,229.51-20.54,539.43,0,0-36.78,199.48-77.54,321.7,0,0-173.42,625.79-417.87,1027.4,0,0-232.76,413.24-569.74,686.58,0,0,42.33-87.58-192.65-174.43"/>
    <path id="path3019" stroke-linejoin="miter" d="m2127.2,3197s-298.03,1566.5-1032.3,1986.5" stroke="#1e5cad" stroke-linecap="round" stroke-miterlimit="4" stroke-dasharray="none" stroke-width="1.15999997" fill="none"/>
    <path id="path3021" stroke-linejoin="miter" d="m1094.9,5183.5s705.65-446.15,1052-1991.5c0,0,69.55-289.39,29.71-628.46" stroke="#1e5cad" stroke-linecap="round" stroke-miterlimit="4" stroke-dasharray="none" stroke-width="5.82000017" fill="none"/>
    <path id="path3023" fill-rule="nonzero" fill="#0e8a4a" d="m1839,4554.2s341.56-180.42,495.1-727.74c0,0,224.25-785.08-164.85-1498.7,0,0,78.56,122.25,106.06,209.59,0,0-34.28-145.86-50.8-168.84,0,0,30.5,54.21,53.57,85.5,0,0-9.61-57.3-97.4-207.77,0,0,271.76,277.34,356.48,869.16,0,0,26.1-194.88-55.97-454.65,0,0-81.72-286.03-250.28-480.15,0,0,245.3,151.87,396.86,796.34,0,0,65.15,274.98,56.81,532.66,0,0,8.83,671.44-358.61,1127.4,0,0-95.96,122.66-201.05,189.28,0,0,2.18-69.91-133.36-134.51,0,0-74.22-34.35-152.56-137.57"/>
    <path id="path3025" stroke-linejoin="miter" d="m2587.4,2831.5s413.92,1475.6-455.37,2014.2" stroke="#0e8a4a" stroke-linecap="round" stroke-miterlimit="4" stroke-dasharray="none" stroke-width="2.91000009" fill="none"/>
    <path id="path3027" stroke-linejoin="miter" d="m2132,4845.7s654.59-363.23,561.48-1643.6c0,0-29.12-384.14-267.69-797.32" stroke="#0e8a4a" stroke-linecap="round" stroke-miterlimit="4" stroke-dasharray="none" stroke-width="5.82000017" fill="none"/>
    <path id="path3029" stroke-linejoin="miter" d="m2801.7,3048.3s422.72-470.94-532.13-1073" stroke="#fcd31d" stroke-linecap="round" stroke-miterlimit="4" stroke-dasharray="none" stroke-width="2.32999992" fill="none"/>
    <path id="path3031" stroke-linejoin="miter" d="m1587.1,3949.6s1296.5-203.28,1425.9-1007.6" stroke="#fcd31d" stroke-linecap="round" stroke-miterlimit="4" stroke-dasharray="none" stroke-width="2.91000009" fill="none"/>
    <path id="path3033" stroke-linejoin="miter" d="m1587.1,3949.6s2160.6-432.74,1226-1765.6" stroke="#fcd31d" stroke-linecap="round" stroke-miterlimit="4" stroke-dasharray="none" stroke-width="1.75" fill="none"/>
    <path id="path3035" stroke-linejoin="miter" d="m2718.4,2725s122.5,530.68-1779.2,737.65" stroke="#fcd31d" stroke-linecap="round" stroke-miterlimit="4" stroke-dasharray="none" stroke-width="11.64000034" fill="none"/>
    <path id="path3037" fill-rule="nonzero" fill="#231f20" d="m605.27,2924.2s191.35-271.06,442.27-417.93c0,0,239.53-154.87,534.54-281.56,0,0-18.42,10.27-46.55,42.38,0,0,32.8-14.03,52.19-20.72,0,0-10.68,4.02-24.06,23.39,0,0,84.22-34.08,101.64-36.75,0,0-41.47,21.38-77.58,40.8,0,0-225.72,105.17-396.76,257.97,0,0,96.92-67.52,194.67-112.76,0,0,166.54-83.26,331.33-130.33,0,0-56.13,18.09-110.43,52.5,0,0-307.78,170.06-321.12,194.82,0,0,119.71-67.55,133.11-74.21,0,0,30.06-17.45,38.11-21.43,0,0-0.65,6.66-24.75,16.72,0,0-138.26,82.75-173.26,105.7,0,0-241.61,142.23-426.39,428.85,0,0-73.125-1.68-112.05-42.19,0,0-20.254-26.05-114.9-25.25"/>
    <path id="path3039" stroke-linejoin="miter" d="m590.6,2922.3s153.11-331.44,806.34-604.29" stroke="#231f20" stroke-linecap="round" stroke-miterlimit="4" stroke-dasharray="none" stroke-width="2.91000009" fill="none"/>
    <path id="path3041" stroke-linejoin="miter" d="m590.6,2922.3s271-435.56,992.32-701.95" stroke="#231f20" stroke-linecap="round" stroke-miterlimit="4" stroke-dasharray="none" stroke-width="1.15999997" fill="none"/>
    <path id="path3043" fill-rule="nonzero" fill="#fcd31d" d="m992.11,3503.7s894.93-133.85,1218.3-285.47c0,0,802.83-276.66,369.21-787.62,0,0-85.97-111.85-210.54-190.78,0,0,22.83,4.16,70.19,40.41,0,0-39.04-61.19-163.61-135.9,0,0,107.95,33.27,293.24,174.28,0,0,239.45,178.77,268.79,442.81,0,0,24,133.19-23.98,270,0,0,86.89-79.43,87.59-270,0,0,28.34-411.54-556.81-772.81,0,0,110.31,36.74,275.74,151.78,0,0,557.77,357.19,324.96,937.23,0,0,140.63-219.98,24.1-539.55,0,0-62.87-216.51-347.81-460.77,0,0,133.2,61.1,253.48,249.85,0,0,149.86,203.49,151.73,431.05,0,0,31.92,333.03-251.58,614.24,0,0-288.04,299.32-902.62,478.55,0,0-163.16,51.22-301.89,69.74,0,0-52.5-132.99-133.24-207.2-77.58-71.4-257.31-144.55-445.26-209.84"/>
    <path id="path3045" fill-rule="nonzero" fill="#231f20" d="m3478.9,1852.3c-56.33,29.44-136.96,38.4-199.69,38.4-231.69,0-362.25-163.84-362.25-385.3,0-225.28,126.73-385.29,362.25-385.29,58.89,0,148.49,7.67,199.69,38.4l5.12-76.81c-48.63-29.43-148.48-38.4-204.81-38.4-281.61,0-450.58,185.61-450.58,462.1,0,271.38,174.09,462.1,450.58,462.1,52.48,0,158.73-8.95,204.81-33.28l-5.12-81.92"/>
    <path id="path3047" fill-rule="nonzero" fill="#231f20" d="m3981.9,1387.6-23.04,0c-139.53,0-305.94-14.09-305.94-157.45,0-85.77,61.45-117.77,135.69-117.77,189.45,0,193.29,165.13,193.29,235.54v39.68zm7.68-224.02-2.55,0c-35.85-78.07-126.74-120.32-207.39-120.32-185.6,0-215.04,125.45-215.04,184.33,0,218.89,232.97,229.13,401.94,229.13h15.36v33.28c0,111.37-39.68,167.69-148.49,167.69-67.84,0-131.84-15.36-192.01-53.76v78.08c49.92,24.33,134.42,44.81,192.01,44.81,161.29,0,229.13-72.97,229.13-243.22v-288.01c0-52.49,0-92.16,6.4-136.97h-79.36v104.96"/>
    <path id="path3049" fill-rule="nonzero" fill="#231f20" d="m4190.5,1557.8c0,49.93,0,101.13-5.11,153.61h78.08v-116.48h2.56c26.87,58.88,75.53,131.85,211.21,131.85,161.29,0,222.73-107.53,222.73-250.9v-417.3h-80.64v396.82c0,122.89-43.53,202.25-154.89,202.25-147.21,0-193.29-129.28-193.29-238.09v-360.98h-80.65v499.22"/>
    <path id="path3051" fill-rule="nonzero" fill="#231f20" d="m5205.6,1387.6-23.05,0c-139.52,0-305.92-14.09-305.92-157.45,0-85.77,61.44-117.77,135.69-117.77,189.44,0,193.28,165.13,193.28,235.54v39.68zm7.68-224.02-2.56,0c-35.84-78.07-126.72-120.32-207.37-120.32-185.6,0-215.05,125.45-215.05,184.33,0,218.89,232.97,229.13,401.94,229.13h15.36v33.28c0,111.37-39.69,167.69-148.49,167.69-67.84,0-131.84-15.36-192-53.76v78.08c49.92,24.33,134.4,44.81,192,44.81,161.29,0,229.14-72.97,229.14-243.22v-288.01c0-52.49,0-92.16,6.4-136.97h-79.37v104.96"/>
    <path id="path3053" fill-rule="nonzero" fill="#231f20" d="m5657.4,1112.4c143.37,0,193.29,153.62,193.29,272.66s-49.92,272.65-193.29,272.65c-153.62,0-193.29-145.92-193.29-272.65s39.67-272.66,193.29-272.66zm273.92-53.76-80.63,0,0,103.68-2.57,0c-43.52-83.2-110.08-119.04-203.53-119.04-179.2,0-268.8,148.49-268.8,341.78,0,198.41,76.8,341.78,268.8,341.78,128.01,0,192.02-93.45,203.53-125.45h2.57v417.3h80.63v-960.05"/>
    <path id="path3055" fill-rule="nonzero" fill="#231f20" d="m6429.3,1387.6-23.03,0c-139.53,0-305.93-14.09-305.93-157.45,0-85.77,61.44-117.77,135.68-117.77,189.45,0,193.28,165.13,193.28,235.54v39.68zm7.69-224.02-2.56,0c-35.85-78.07-126.73-120.32-207.37-120.32-185.61,0-215.05,125.45-215.05,184.33,0,218.89,232.98,229.13,401.94,229.13h15.35v33.28c0,111.37-39.68,167.69-148.47,167.69-67.86,0-131.86-15.36-192.02-53.76v78.08c49.93,24.33,134.41,44.81,192.02,44.81,161.29,0,229.12-72.97,229.12-243.22v-288.01c0-52.49,0-92.16,6.4-136.97h-79.36v104.96"/>
    <path id="path3057" fill-rule="nonzero" fill="#231f20" d="m445.22,824.36-194.57-492.83,387.86,0-193.29,492.83zm-43.52,84.493,99.844,0,354.57-893.49-92.164,0-96.004,239.38-450.58,0-96.008-239.38-85.761,0,366.1,893.49"/>
    <path id="path3059" fill-rule="nonzero" fill="#231f20" d="m948.23,15.359,80.644,0,0,960.05-80.644,0,0-960.05z"/>
    <path id="path3061" fill-rule="nonzero" fill="#231f20" d="m1473,614.43c-147.2,0-193.27-153.61-193.27-272.65,0-119.05,49.92-272.66,193.27-272.66,153.62,0,193.3,145.93,193.3,272.66s-39.68,272.65-193.3,272.65zm-273.92,360.98,80.65,0,0-417.3,2.55,0c11.52,32,75.52,125.44,203.54,125.44,192.01,0,268.8-143.36,268.8-341.77-0.1-193.29-89.7-341.78-268.9-341.78-93.4,0-160,35.84-203.5,119.04h-2.55v-103.68h-80.65v960.05"/>
    <path id="path3063" fill-rule="nonzero" fill="#231f20" d="m2290.9,387.86c0,113.93-46.07,226.57-166.4,226.57-119.05,0-192-119.05-192-226.57h358.4zm39.7-352.02c-56.3-23.039-129.2-35.84-189.4-35.84-216.4,0-297,145.93-297,341.78,0,199.68,110.1,341.77,275.22,341.77,184.33,0,259.86-148.48,259.86-323.85v-40.957h-446.74c0-138.25,74.24-249.62,215.04-249.62,58.89,0,144.65,24.328,183.05,48.641v-81.922"/>
    <path id="path3065" fill-rule="nonzero" fill="#231f20" d="m2477.2,522.27c0,71.671,0,98.562-5.12,145.92h80.65v-125.45h2.56c29.43,72.973,84.47,140.81,167.67,140.81,19.2,0,42.25-3.832,56.33-7.68v-84.48c-16.64,5.109-38.4,7.679-58.89,7.679-128,0-162.55-143.37-162.55-261.13v-322.58h-80.65v506.91"/>
    <path id="path3067" fill-rule="nonzero" fill="#231f20" d="m3189.5,599.07-148.5,0,0-422.42c0-58.886,21.78-107.53,87.05-107.53,30.72,0,51.21,6.4102,74.24,15.359l5.12-66.559c-19.1-7.682-58.8-17.92-98.5-17.92-143.3,0-148.4,98.559-148.4,217.61v381.46h-127.99v69.121h127.99v157.44l80.64,28.172v-185.61h148.5v-69.121"/>
    <path id="path3069" fill-rule="nonzero" fill="#231f20" d="m3675.9,344.34-23.04,0c-139.51,0-305.92-14.09-305.92-157.46,0-85.758,61.42-117.76,135.68-117.76,189.44,0,193.28,165.13,193.28,235.54v39.68zm7.68-224.02-2.56,0c-12.8-78.07-103.7-120.32-184.4-120.32-185.61,0-215.06,125.45-215.06,184.33,0,218.89,232.97,229.13,401.95,229.13h15.35v33.277c0,111.37-39.68,167.69-148.47,167.69-67.85,0-131.86-15.36-192.01-53.77v78.09c49.92,24.332,134.39,44.801,192.01,44.801,161.27,0,229.12-72.961,229.12-243.21v-288.02c0-52.48,0-92.148,6.4-136.96h-79.37v104.96"/>
   </g>
  </g>
 </g>
</svg>
